# xmcd
#
# Track frame offsets: 
#        300
#        22941
#        38738
#        62243
#        85748
#        104406
#        120620
#        137733
#        155709
#        171728
#        190289
#        210410
#
# Disc length: 3084 seconds
#
# Revision: 0
# Processed by: cddbd v1.5.2PL0 Copyright (c) Steve Scherf et al.
# Submitted via: ExactAudioCopy v1.0b1
#
DISCID=a80c080c
DTITLE=Dana Gillespie - Have I Got Blues For You
DYEAR=1996
DGENRE=Blues
TTITLE0=Have I Got Blues For You
TTITLE1=Blue Cadillac
TTITLE2=These Blue Nights
TTITLE3=Blue Blood
TTITLE4=You Blue It
TTITLE5=Paint The Town Blue
TTITLE6=The Boy's In Blue
TTITLE7=Smokin' That Blue Grass
TTITLE8=Too Good To Be Blue
TTITLE9=Blue Ridge Mountain Train
TTITLE10=Blue One Too
TTITLE11=Out Of The Blue
EXTD=
EXTT0=
EXTT1=
EXTT2=
EXTT3=
EXTT4=
EXTT5=
EXTT6=
EXTT7=
EXTT8=
EXTT9=
EXTT10=
EXTT11=
PLAYORDER=
